<?xml version="1.0" standalone="no"?>
<!DOCTYPE svg PUBLIC "-//W3C//DTD SVG 20010904//EN"
 "http://www.w3.org/TR/2001/REC-SVG-20010904/DTD/svg10.dtd">
<svg version="1.0" xmlns="http://www.w3.org/2000/svg"
 width="125.000000pt" height="117.000000pt" viewBox="0 0 125.000000 117.000000"
 preserveAspectRatio="xMidYMid meet">

<g transform="translate(0.000000,117.000000) scale(0.100000,-0.100000)"
fill="#000000" stroke="none">
<path d="M405 1058 c-28 -49 -34 -53 -71 -56 -38 -3 -42 -6 -89 -85 -84 -139
-185 -318 -185 -328 0 -4 29 -59 63 -121 179 -319 157 -287 202 -290 37 -3 42
-7 67 -53 l27 -50 68 -6 c37 -4 139 -7 226 -8 l157 -1 35 55 c33 51 39 55 73
55 l38 0 81 138 c45 76 85 146 88 155 4 9 -5 38 -21 67 l-28 52 28 49 c15 27
26 55 24 63 -2 7 -39 77 -83 154 l-80 142 -37 0 c-35 0 -40 4 -68 54 -30 53
-32 54 -83 58 -29 2 -131 5 -227 7 l-175 2 -30 -53z m499 -25 c28 -49 33 -53
67 -53 l37 0 81 -139 c45 -77 81 -145 81 -151 0 -7 -12 -34 -27 -60 l-27 -48
29 -54 28 -54 -83 -142 -82 -142 -38 0 c-36 0 -41 -4 -72 -55 l-33 -55 -215 2
-215 3 -27 50 c-24 46 -30 50 -69 55 l-42 5 -108 190 c-59 105 -108 196 -108
203 -1 8 23 55 53 105 29 51 79 136 110 190 35 60 63 97 74 98 9 1 22 2 27 4
6 1 17 3 25 3 8 1 28 25 43 52 l28 50 217 -2 216 -3 30 -52z"/>
<path d="M646 832 c-2 -4 4 -8 14 -8 10 0 16 4 14 8 -3 4 -9 8 -14 8 -5 0 -11
-4 -14 -8z"/>
<path d="M850 825 c-24 -29 17 -72 43 -45 9 9 8 11 -8 8 -12 -2 -21 3 -23 15
-2 12 3 17 18 17 12 0 18 5 15 10 -9 15 -31 12 -45 -5z"/>
<path d="M450 806 c0 -13 -5 -17 -20 -13 -24 6 -27 -8 -3 -17 23 -9 51 20 35
36 -9 9 -12 8 -12 -6z"/>
<path d="M630 790 c13 -24 33 -26 51 -4 11 13 9 14 -14 9 -17 -5 -27 -3 -27 4
0 6 -5 11 -10 11 -7 0 -7 -6 0 -20z"/>
<path d="M406 605 c-6 -17 9 -21 20 -4 4 8 10 7 18 -1 8 -8 6 -15 -8 -26 -22
-15 -16 -30 9 -20 25 9 30 37 10 52 -24 18 -41 18 -49 -1z"/>
<path d="M636 605 c-21 -16 -16 -42 9 -52 9 -3 21 -1 28 6 8 8 5 11 -11 11
-13 0 -22 6 -22 15 0 8 9 15 21 15 11 0 17 5 14 10 -8 13 -16 12 -39 -5z"/>
<path d="M845 597 c-7 -18 9 -47 27 -47 7 0 7 4 0 13 -5 6 -12 21 -14 32 -5
18 -6 19 -13 2z"/>
<path d="M885 600 c3 -5 11 -10 16 -10 6 0 7 5 4 10 -3 6 -11 10 -16 10 -6 0
-7 -4 -4 -10z"/>
<path d="M435 386 c11 -8 16 -19 12 -30 -4 -9 -2 -16 4 -16 16 0 22 29 9 45
-7 8 -20 15 -28 15 -13 0 -12 -2 3 -14z"/>
<path d="M627 393 c-4 -3 -7 -16 -7 -27 1 -19 2 -19 11 -3 14 24 37 21 42 -5
3 -20 4 -21 11 -5 14 30 -34 64 -57 40z"/>
<path d="M850 385 c-7 -9 -9 -22 -4 -32 7 -16 8 -15 11 5 3 12 9 22 14 22 5 0
9 5 9 10 0 15 -16 12 -30 -5z"/>
</g>
</svg>
