<?xml version="1.0" encoding="utf-8"?>
<!-- Uploaded to: SVG Repo, www.svgrepo.com, Generator: SVG Repo Mixer Tools -->
<svg width="800px" height="800px" viewBox="0 0 1024 1024" fill="#000000" class="icon"  version="1.1" xmlns="http://www.w3.org/2000/svg"><path d="M727.956 903.918a7.994 7.994 0 0 1-5.654-13.652l47.99-47.99a7.996 7.996 0 1 1 11.308 11.31l-47.988 47.988a7.98 7.98 0 0 1-5.656 2.344zM815.938 815.938a7.996 7.996 0 0 1-5.654-13.654l199.958-199.958a7.996 7.996 0 1 1 11.31 11.31l-199.958 199.958a7.98 7.98 0 0 1-5.656 2.344zM807.94 903.918a7.994 7.994 0 0 1-5.656-13.652L1010.24 682.308a7.996 7.996 0 1 1 11.31 11.308L813.594 901.574a7.972 7.972 0 0 1-5.654 2.344z" fill="" /><path d="M815.938 815.938a7.968 7.968 0 0 1-5.654-2.344l-295.94-295.94a7.996 7.996 0 1 1 11.31-11.308l295.938 295.938a7.996 7.996 0 0 1-5.654 13.654zM775.946 855.93a7.972 7.972 0 0 1-5.654-2.344L482.35 565.644a7.996 7.996 0 1 1 11.31-11.308l287.94 287.94a7.996 7.996 0 0 1-5.654 13.654zM807.94 695.96a7.976 7.976 0 0 1-5.656-2.344L578.33 469.666a7.996 7.996 0 1 1 11.31-11.31l223.954 223.954a7.994 7.994 0 0 1-5.654 13.65z" fill="" /><path d="M807.94 695.96a7.994 7.994 0 0 1-5.656-13.652l111.976-111.976a7.996 7.996 0 1 1 11.31 11.308l-111.976 111.976a7.964 7.964 0 0 1-5.654 2.344z" fill="" /><path d="M919.916 583.984a7.976 7.976 0 0 1-5.656-2.344L690.306 357.688a7.996 7.996 0 1 1 11.31-11.308l223.954 223.954a7.994 7.994 0 0 1-5.654 13.65z" fill="" /><path d="M583.986 472.008a7.996 7.996 0 0 1-5.656-13.652l111.976-111.976a7.996 7.996 0 1 1 11.31 11.308l-111.976 111.978a7.98 7.98 0 0 1-5.654 2.342zM983.902 519.998a7.994 7.994 0 0 1-5.654-13.652l31.992-31.994a7.996 7.996 0 1 1 11.31 11.31l-31.994 31.992a7.966 7.966 0 0 1-5.654 2.344z" fill="" /><path d="M983.902 519.998a7.972 7.972 0 0 1-5.654-2.344l-63.988-63.986a7.996 7.996 0 1 1 11.31-11.31l63.986 63.988a7.994 7.994 0 0 1-5.654 13.652z" fill="" /><path d="M919.916 456.012a7.996 7.996 0 0 1-5.656-13.654l95.98-95.978a7.996 7.996 0 1 1 11.31 11.308l-95.98 95.98a7.968 7.968 0 0 1-5.654 2.344zM647.972 839.932a7.976 7.976 0 0 1-5.656-2.344L434.36 629.632a8 8 0 0 1 11.31-11.312l207.958 207.958a7.996 7.996 0 0 1-5.656 13.654z" fill="" /><path d="M583.986 903.918a7.994 7.994 0 0 1-5.656-13.652l63.986-63.988a7.996 7.996 0 1 1 11.31 11.31l-63.986 63.986a7.972 7.972 0 0 1-5.654 2.344zM56.094 567.988a7.994 7.994 0 0 1-5.656-13.652l95.98-95.98a7.996 7.996 0 1 1 11.31 11.31l-95.98 95.978a7.96 7.96 0 0 1-5.654 2.344z" fill="" /><path d="M266.55 778.446a7.972 7.972 0 0 1-5.654-2.344L50.44 565.644a7.996 7.996 0 1 1 11.31-11.308l210.456 210.456a7.996 7.996 0 0 1-5.656 13.654z" fill="" /><path d="M266.55 778.446a7.996 7.996 0 0 1-5.654-13.654l63.986-63.986a7.996 7.996 0 1 1 11.31 11.31l-63.988 63.986a7.966 7.966 0 0 1-5.654 2.344z" fill="" /><path d="M519.998 903.918a7.972 7.972 0 0 1-5.654-2.344l-189.46-189.458a7.996 7.996 0 1 1 11.31-11.31l189.46 189.46a7.994 7.994 0 0 1-5.656 13.652zM376.028 903.918a7.994 7.994 0 0 1-5.656-13.652l15.998-15.996a7.996 7.996 0 1 1 11.31 11.308l-15.996 15.996a7.976 7.976 0 0 1-5.656 2.344z" fill="" /><path d="M392.026 887.922a7.976 7.976 0 0 1-5.656-2.344l-63.988-63.986a7.996 7.996 0 1 1 11.31-11.31l63.986 63.988a7.994 7.994 0 0 1-5.652 13.652z" fill="" /><path d="M248.054 903.918a7.994 7.994 0 0 1-5.654-13.652l79.982-79.984a7.996 7.996 0 1 1 11.31 11.31l-79.984 79.982a7.966 7.966 0 0 1-5.654 2.344zM200.064 839.932a7.972 7.972 0 0 1-5.654-2.344L3.2 646.378a7.996 7.996 0 1 1 11.31-11.31l191.21 191.208a7.996 7.996 0 0 1 0 11.31 7.966 7.966 0 0 1-5.656 2.346z" fill="" /><path d="M136.078 903.918a7.994 7.994 0 0 1-5.654-13.652l63.986-63.988a7.996 7.996 0 1 1 11.31 11.31l-63.988 63.986a7.972 7.972 0 0 1-5.654 2.344zM120.208 391.9a7.976 7.976 0 0 1-5.656-2.344L3.2 278.22a7.996 7.996 0 1 1 11.31-11.31l111.352 111.336a7.996 7.996 0 0 1-5.654 13.654z" fill="" /><path d="M8.106 504.002a7.996 7.996 0 0 1-5.656-13.654l112.102-112.086a7.996 7.996 0 1 1 11.31 11.31L13.76 501.658a7.972 7.972 0 0 1-5.654 2.344zM807.94 312.042a7.994 7.994 0 0 1-5.656-13.652l79.984-79.984a7.996 7.996 0 1 1 11.31 11.31l-79.984 79.982a7.972 7.972 0 0 1-5.654 2.344zM583.986 312.042a7.994 7.994 0 0 1-5.656-13.652l79.984-79.984a7.996 7.996 0 1 1 11.308 11.31l-79.982 79.982a7.972 7.972 0 0 1-5.654 2.344zM919.916 903.918a7.994 7.994 0 0 1-5.656-13.652l95.98-95.98a7.996 7.996 0 1 1 11.31 11.31l-95.98 95.978a7.968 7.968 0 0 1-5.654 2.344z" fill="" /><path d="M887.922 392.026a7.976 7.976 0 0 1-5.654-2.344l-79.984-79.984a7.996 7.996 0 1 1 11.31-11.308l79.984 79.982a7.996 7.996 0 0 1-5.656 13.654z" fill="" /><path d="M887.922 392.026a7.996 7.996 0 0 1-5.654-13.654L1010.24 250.4a7.996 7.996 0 1 1 11.31 11.31l-127.972 127.972a7.976 7.976 0 0 1-5.656 2.344z" fill="" /><path d="M1015.896 903.918H8.854a7.994 7.994 0 0 1-7.998-7.998V224.06c0-4.422 3.578-8 7.998-8s8 3.578 8 8v663.862h991.042V224.06c0-4.422 3.578-8 8-8a7.994 7.994 0 0 1 7.998 8v671.86a7.994 7.994 0 0 1-7.998 7.998z" fill="" /><path d="M344.036 647.972c-47.216 0-199.958-216.83-199.958-327.934 0-110.258 89.702-199.958 199.958-199.958s199.958 89.7 199.958 199.958c0 111.104-152.742 327.934-199.958 327.934z m0-511.894c-101.44 0-183.962 82.522-183.962 183.96 0 107.212 149.508 311.936 183.962 311.936s183.962-204.722 183.962-311.936c0-101.438-82.524-183.96-183.962-183.96zM120.082 232.058H8.854a7.994 7.994 0 0 1-7.998-7.998c0-4.422 3.578-8 7.998-8h111.228a7.994 7.994 0 0 1 7.998 8 7.994 7.994 0 0 1-7.998 7.998zM1015.896 232.058H567.988a7.994 7.994 0 0 1-7.998-7.998c0-4.422 3.578-8 7.998-8h447.908a7.994 7.994 0 0 1 7.998 8 7.994 7.994 0 0 1-7.998 7.998z" fill="" /><path d="M440.016 344.036h-191.96a7.994 7.994 0 0 1-7.998-7.998v-31.994a7.994 7.994 0 0 1 7.998-7.998h191.96a7.994 7.994 0 0 1 7.998 7.998v31.994a7.994 7.994 0 0 1-7.998 7.998z m-183.964-15.996h175.964v-15.998h-175.964v15.998z" fill="" /><path d="M280.042 440.016a8.002 8.002 0 0 1-7.882-6.68l-15.998-95.478a8 8 0 0 1 6.57-9.21c4.304-0.802 8.476 2.204 9.21 6.57l15.996 95.48a8 8 0 0 1-7.896 9.318z" fill="" /><path d="M408.022 440.016h-127.972c-4.422 0-8-3.578-8-7.998 0-4.422 3.578-8 8-8h127.972a7.994 7.994 0 0 1 7.998 8 7.994 7.994 0 0 1-7.998 7.998z" fill="" /><path d="M408.03 440.016a8 8 0 0 1-7.896-9.318l15.996-95.48c0.726-4.36 4.804-7.358 9.208-6.57a8.002 8.002 0 0 1 6.57 9.21l-15.998 95.478a8 8 0 0 1-7.88 6.68zM312.042 408.022a7.994 7.994 0 0 1-7.998-7.998v-31.994a7.994 7.994 0 0 1 7.998-7.998c4.422 0 8 3.578 8 7.998v31.994a7.998 7.998 0 0 1-8 7.998zM344.036 408.022a7.994 7.994 0 0 1-7.998-7.998v-31.994c0-4.42 3.578-7.998 7.998-7.998s7.998 3.578 7.998 7.998v31.994a7.994 7.994 0 0 1-7.998 7.998zM376.028 408.022a7.994 7.994 0 0 1-7.998-7.998v-31.994c0-4.42 3.578-7.998 7.998-7.998s8 3.578 8 7.998v31.994a7.994 7.994 0 0 1-8 7.998zM280.042 312.042a7.958 7.958 0 0 1-4.79-1.602 7.982 7.982 0 0 1-1.6-11.192l47.99-63.988c2.656-3.53 7.678-4.248 11.194-1.6a7.98 7.98 0 0 1 1.602 11.192l-47.99 63.988a7.972 7.972 0 0 1-6.406 3.202zM408.78 312.042a7.994 7.994 0 0 1-6.374-3.154l-48.74-63.988a8 8 0 0 1 1.524-11.208 7.994 7.994 0 0 1 11.208 1.522l48.74 63.988a8.004 8.004 0 0 1-6.358 12.84z" fill="" /></svg>