<?xml version="1.0" encoding="iso-8859-1"?>
<!-- Uploaded to: SVG Repo, www.svgrepo.com, Generator: SVG Repo Mixer Tools -->
<!DOCTYPE svg PUBLIC "-//W3C//DTD SVG 1.1//EN" "http://www.w3.org/Graphics/SVG/1.1/DTD/svg11.dtd">
<svg fill="#000000" version="1.1" id="Capa_1" xmlns="http://www.w3.org/2000/svg" xmlns:xlink="http://www.w3.org/1999/xlink" 
	 width="800px" height="800px" viewBox="0 0 62.167 62.167"
	 xml:space="preserve">
<g>
	<g>
		<path d="M31.25,4.417c-11.304,0-20.5,9.196-20.5,20.5c0,0.553,0.448,1,1,1c0.552,0,1-0.447,1-1c0-10.201,8.299-18.5,18.5-18.5
			s18.5,8.299,18.5,18.5c0,0.553,0.447,1,1,1c0.552,0,1-0.447,1-1C51.75,13.613,42.554,4.417,31.25,4.417z"/>
		<path d="M47.5,19.667c0-3.446-2.805-6.25-6.25-6.25c-3.446,0-6.25,2.804-6.25,6.25c0,3.446,2.804,6.25,6.25,6.25
			C44.695,25.917,47.5,23.113,47.5,19.667z M37,19.667c0-2.344,1.906-4.25,4.25-4.25c2.343,0,4.25,1.906,4.25,4.25
			c0,2.344-1.907,4.25-4.25,4.25C38.906,23.917,37,22.01,37,19.667z"/>
		<path d="M27.5,19.667c0-3.446-2.804-6.25-6.25-6.25c-3.446,0-6.25,2.804-6.25,6.25c0,3.446,2.804,6.25,6.25,6.25
			C24.696,25.917,27.5,23.113,27.5,19.667z M17,19.667c0-2.344,1.907-4.25,4.25-4.25c2.343,0,4.25,1.906,4.25,4.25
			c0,2.344-1.907,4.25-4.25,4.25C18.907,23.917,17,22.01,17,19.667z"/>
		<path d="M10.75,29.917c0,0.553,0.448,1,1,1h39c0.552,0,1-0.447,1-1c0-0.553-0.448-1-1-1h-39
			C11.198,28.917,10.75,29.364,10.75,29.917z"/>
		<path d="M17.5,44.583h-5.75c-0.552,0-1,0.446-1,1V56.75c0,0.553,0.448,1,1,1h5.75c0.552,0,1-0.447,1-1V45.583
			C18.5,45.032,18.052,44.583,17.5,44.583z M16.5,55.75h-3.75v-9.167h3.75V55.75z"/>
		<path d="M45,57.75h5.75c0.552,0,1-0.447,1-1V45.583c0-0.554-0.448-1-1-1H45c-0.553,0-1,0.446-1,1V56.75
			C44,57.303,44.447,57.75,45,57.75z M46,46.583h3.75v9.167H46V46.583z"/>
		<path d="M21.25,37.75h20c0.552,0,1-0.447,1-1s-0.448-1-1-1h-20c-0.552,0-1,0.447-1,1S20.698,37.75,21.25,37.75z"/>
		<path d="M61.167,18.667c-0.552,0-1,0.447-1,1v12.5H50.75h-39H2V18.75c0-0.553-0.448-1-1-1c-0.552,0-1,0.447-1,1v14.416
			c0,0.553,0.448,1,1,1h9.75v7.5c0,0.553,0.448,1,1,1h7.416v7.5c0,0.553,0.448,1,1,1h22.168c0.552,0,1-0.447,1-1v-7.5h7.416
			c0.552,0,1-0.447,1-1v-7.5h9.417c0.552,0,1-0.447,1-1v-13.5C62.167,19.114,61.719,18.667,61.167,18.667z M49.75,40.667h-7.416
			c-0.553,0-1,0.447-1,1v7.5H21.166v-7.5c0-0.553-0.448-1-1-1H12.75v-6.5h37V40.667z"/>
	</g>
</g>
</svg>